{"title":"All.Good.Things (2010) LIMITED.720p.x264.Feel-Free","uid":6257741,"size":2521985291,"categoryP":"video","categoryS":"hd___movies","magnet":"?xt=urn:btih:d8da11d5d72dcd47e571e275939c1ca2f662b51b&amp;dn=All.Good.Things+%282010%29+LIMITED.720p.x264.Feel-Free&amp;tr=udp%3A%2F%2Ftracker.openbittorrent.com%3A80&amp;tr=udp%3A%2F%2Fopen.demonii.com%3A1337&amp;tr=udp%3A%2F%2Ftracker.coppersurfer.tk%3A6969&amp;tr=udp%3A%2F%2Fexodus.desync.com%3A6969","seeders":1,"leechers":0,"uploader":"hiest","files":-1,"time":1300638323,"description":"\n######## ######## ######## ##          ######## ########  ######## ######## \n##       ##       ##       ##          ##       ##     ## ##       ##       \n##       ##       ##       ##          ##       ##     ## ##       ##       \n######   ######   ######   ##          ######   ########  ######   ######   \n##       ##       ##       ##          ##       ##   ##   ##       ##       \n##       ##       ##       ##          ##       ##    ##  ##       ##       \n##       ######## ######## ########    ##       ##     ## ######## ######## \n\n\nGenre:Drama | Mystery | Thriller\nLanguage:English\nIMDb: &lt;a href=&quot;\nhttp://www.imdb.com/title/tt1175709/&quot; rel=&quot;nofollow&quot; target=&quot;_NEW&quot;&gt;\nhttp://www.imdb.com/title/tt1175709/&lt;/a&gt;\nSource:1080p.BluRay.x264-TWiZTED\n\n\nFormat : MPEG-4\nFormat profile : Base Media\nCodec ID : isom\nFile size : 2.34 GiB\nDuration : 1h 41mn\nOverall bit rate : 3 310 Kbps\n\n\nVideo\nFormat profile : &lt;a class=&quot;__cf_email__&quot; href=&quot;/cdn-cgi/l/email-protection&quot; data-cfemail=&quot;99d1f0fef1d9d5adb7a8&quot;&gt;[email&amp;#160;protected]&lt;/a&gt;&lt;script cf-hash='f9e31' type=&quot;text/javascript&quot;&gt;\n/* &lt;![CDATA[ */!function(){try{var t=&quot;currentScript&quot;in document?document.currentScript:function(){for(var t=document.getElementsByTagName(&quot;script&quot;),e=t.length;e--;)if(t[e].getAttribute(&quot;cf-hash&quot;))return t[e]}();if(t&amp;&amp;t.previousSibling){var e,r,n,i,c=t.previousSibling,a=c.getAttribute(&quot;data-cfemail&quot;);if(a){for(e=&quot;&quot;,r=parseInt(a.substr(0,2),16),n=2;a.length-n;n+=2)i=parseInt(a.substr(n,2),16)^r,e+=String.fromCharCode(i);e=document.createTextNode(e),c.parentNode.replaceChild(e,c)}}}catch(u){}}();/* ]]&gt; */&lt;/script&gt;\nFormat settings, CABAC : Yes\nFormat settings, ReFrames : 3 frames\nCodec ID : avc1\nCodec ID/Info : Advanced Video Coding\nDuration : 1h 40mn\nBit rate mode : Variable\nBit rate : 2 915 Kbps\nMaximum bit rate : 23.0 Mbps\nWidth : 1 280 pixels\nHeight : 720 pixels\nDisplay aspect ratio : 16:9\nFrame rate mode : Constant\nFrame rate : 23.976 fps\nColor space : YUV\nChroma subsampling : 4:2:0\nBit depth : 8 bits\nScan type : Progressive\nBits/(Pixel*Frame) : 0.132\nStream size : 2.03 GiB (87%)\nWriting library : x264\n\n\nAudio\nID : 2\nFormat : AAC\nFormat/Info : Advanced Audio Codec\nFormat version : Version 4\nFormat profile : LC\nFormat settings, SBR : No\nCodec ID : 40\nDuration : 1h 41mn\nBit rate mode : Variable\nBit rate : 443 Kbps\nMaximum bit rate : 546 Kbps\nChannel(s) : 6 channels\nChannel positions : Front: L C R, Side: L R, LFE\nSampling rate : 48.0 KHz\nStream size : 321 MiB (13%)\n\n\nPlot:\nAll Good Things is a love story and murder mystery based on the most notorious unsolved murder case in New York\n\n\n\nGreets:\n\nINK,CRYS,IMAGINE,LKRG,FXG,3Li,FLAWL3SS,TA,iLLUSiON,ViSiON,DTRG SAFCuk009,LU,TheFalcon007,MYSTiC,PrisM,Noir,WBZ,LAP,Rx,Kingdom,SAFCuk009+Fabreezy,HDLiTE,TWiZTED,ExtraTorrentRG.ELEKTRI4KA,MAGNAT,CM8\nAnd to all the other p2p grps past and present\n\n\n\n\n\n================================== &lt;a href=&quot;\nhttp://thepiratebay.se/user/hiest&quot; rel=&quot;nofollow&quot; target=&quot;_NEW&quot;&gt;\nhttp://thepiratebay.se/user/hiest&lt;/a&gt;\n==================================\n\n\n\n\n\nScreenshots:\n &lt;a href=&quot;\nhttp://www.pix2links.com/images/15939023178780810312.png&quot; rel=&quot;nofollow&quot; target=&quot;_NEW&quot;&gt;\nhttp://www.pix2links.com/images/15939023178780810312.png&lt;/a&gt;\n &lt;a href=&quot;\nhttp://www.pix2links.com/images/38632504488082674735.png&quot; rel=&quot;nofollow&quot; target=&quot;_NEW&quot;&gt;\nhttp://www.pix2links.com/images/38632504488082674735.png&lt;/a&gt;\n &lt;a href=&quot;\nhttp://www.pix2links.com/images/14131302817436292791.png&quot; rel=&quot;nofollow&quot; target=&quot;_NEW&quot;&gt;\nhttp://www.pix2links.com/images/14131302817436292791.png&lt;/a&gt;\n &lt;a href=&quot;\nhttp://www.pix2links.com/images/36421613420320113727.png&quot; rel=&quot;nofollow&quot; target=&quot;_NEW&quot;&gt;\nhttp://www.pix2links.com/images/36421613420320113727.png&lt;/a&gt;\n &lt;a href=&quot;\nhttp://www.pix2links.com/images/38188091631297039489.png&quot; rel=&quot;nofollow&quot; target=&quot;_NEW&quot;&gt;\nhttp://www.pix2links.com/images/38188091631297039489.png&lt;/a&gt;\n\n\n######## ######## ######## ##          ######## ########  ######## ######## \n##       ##       ##       ##          ##       ##     ## ##       ##       \n##       ##       ##       ##          ##       ##     ## ##       ##       \n######   ######   ######   ##          ######   ########  ######   ######   \n##       ##       ##       ##          ##       ##   ##   ##       ##       \n##       ##       ##       ##          ##       ##    ##  ##       ##       \n##       ######## ######## ########    ##       ##     ## ######## ######## \n","torrent":{"xt":"urn:btih:d8da11d5d72dcd47e571e275939c1ca2f662b51b","amp;dn":"All.Good.Things+%282010%29+LIMITED.720p.x264.Feel-Free","amp;tr":["udp%3A%2F%2Ftracker.openbittorrent.com%3A80","udp%3A%2F%2Fopen.demonii.com%3A1337","udp%3A%2F%2Ftracker.coppersurfer.tk%3A6969","udp%3A%2F%2Fexodus.desync.com%3A6969"],"infoHash":"d8da11d5d72dcd47e571e275939c1ca2f662b51b","infoHashBuffer":{"type":"Buffer","data":[216,218,17,213,215,45,205,71,229,113,226,117,147,156,28,162,246,98,181,27]},"announce":[],"urlList":[]}}